<?xml version="1.0" encoding="UTF-8" standalone="no"?>
<!-- Created with Inkscape (http://www.inkscape.org/) -->

<svg
   width="20"
   height="20"
   viewBox="0 0 5.2916665 5.2916666"
   version="1.1"
   id="svg8"
   inkscape:version="1.4.3 (0d15f75, 2025-12-25)"
   sodipodi:docname="CompareB.svg"
   xmlns:inkscape="http://www.inkscape.org/namespaces/inkscape"
   xmlns:sodipodi="http://sodipodi.sourceforge.net/DTD/sodipodi-0.dtd"
   xmlns="http://www.w3.org/2000/svg"
   xmlns:svg="http://www.w3.org/2000/svg"
   xmlns:rdf="http://www.w3.org/1999/02/22-rdf-syntax-ns#"
   xmlns:cc="http://creativecommons.org/ns#"
   xmlns:dc="http://purl.org/dc/elements/1.1/">
  <defs
     id="defs2" />
  <sodipodi:namedview
     id="base"
     pagecolor="#ffffff"
     bordercolor="#666666"
     borderopacity="1.0"
     inkscape:pageopacity="0.0"
     inkscape:pageshadow="2"
     inkscape:zoom="26.75"
     inkscape:cx="9.9813084"
     inkscape:cy="10"
     inkscape:document-units="px"
     inkscape:current-layer="layer1"
     showgrid="true"
     units="px"
     inkscape:window-width="1920"
     inkscape:window-height="1137"
     inkscape:window-x="-8"
     inkscape:window-y="-8"
     inkscape:window-maximized="1"
     inkscape:pagecheckerboard="0"
     inkscape:showpageshadow="2"
     inkscape:deskcolor="#d1d1d1">
    <inkscape:grid
       type="xygrid"
       id="grid4526"
       empspacing="10"
       originx="0"
       originy="0"
       spacingy="0.26458333"
       spacingx="0.26458333"
       units="px" />
  </sodipodi:namedview>
  <metadata
     id="metadata5">
    <rdf:RDF>
      <cc:Work
         rdf:about="">
        <dc:format>image/svg+xml</dc:format>
        <dc:type
           rdf:resource="http://purl.org/dc/dcmitype/StillImage" />
      </cc:Work>
    </rdf:RDF>
  </metadata>
  <g
     inkscape:label="Layer 1"
     inkscape:groupmode="layer"
     id="layer1"
     transform="translate(0,-291.70831)">
    <path
       id="path1296"
       style="fill:#f0f0f0;stroke-width:0.722981"
       d="m 0.79374997,292.76664 0,3.175 H 4.4979165 l 0,-3.175 z m 0.90020343,0.45114 h 0.9084717 c 0.1798339,0 0.3136759,0.008 0.4015258,0.0233 0.088884,0.0145 0.1679484,0.0455 0.2371949,0.093 0.07028,0.0475 0.1286743,0.1111 0.1751831,0.19069 0.046509,0.0786 0.069763,0.16692 0.069763,0.2651 0,0.10645 -0.028939,0.20412 -0.086816,0.293 -0.056844,0.0889 -0.1343586,0.15554 -0.2325439,0.19999 0.1384929,0.0403 0.2449463,0.10906 0.3193603,0.20619 0.074414,0.0971 0.1116211,0.21135 0.1116211,0.34261 0,0.10336 -0.024288,0.20412 -0.072864,0.30231 -0.047543,0.0971 -0.1131718,0.17519 -0.1968872,0.23409 -0.082682,0.0579 -0.1850017,0.0935 -0.306958,0.10698 -0.076481,0.008 -0.260966,0.0134 -0.5534546,0.0155 H 1.6939534 Z m 0.7224365,0.37775 -0.2635498,5.2e-4 v 0.52555 H 2.453597 c 0.1788004,0 0.2899047,-0.002 0.3333129,-0.008 0.078548,-0.009 0.1400432,-0.0362 0.1844849,-0.0806 0.045475,-0.0455 0.068213,-0.10489 0.068213,-0.17828 0,-0.0703 -0.019637,-0.12712 -0.058911,-0.17053 -0.038241,-0.0445 -0.095601,-0.0713 -0.1720825,-0.0806 -0.045475,-0.005 -0.1762167,-0.008 -0.3922241,-0.008 z m -0.2635498,0.90434 v 0.60772 h 0.4247803 c 0.1653646,0 0.2702677,-0.005 0.3147095,-0.014 0.068213,-0.0124 0.1235066,-0.0424 0.1658813,-0.0899 0.043408,-0.0486 0.065112,-0.1132 0.065112,-0.19379 0,-0.0682 -0.016537,-0.12609 -0.049609,-0.17363 -0.033073,-0.0475 -0.081132,-0.0822 -0.1441772,-0.10387 -0.062012,-0.0217 -0.1974042,-0.0326 -0.4061768,-0.0326 z"
       sodipodi:nodetypes="ccccccscccscccscccccccccsccscccccsccsscsc" />
  </g>
</svg>
